M48
;Layer_Color=9474304
;FILE_FORMAT=4:4
METRIC,LZ
;TYPE=PLATED
T01F00S00C0.7000
T02F00S00C0.7112
T03F00S00C0.7620
T05F00S00C0.9500
T06F00S00C1.0160
T07F00S00C1.0500
T08F00S00C1.1000
T09F00S00C1.1500
T10F00S00C1.3970
T11F00S00C3.0000
;TYPE=NON_PLATED
T12F00S00C3.0000
%
T01
X0173101Y0014221
Y0021847
T02
X0101727Y0004064
X00240018Y00401277
X0017526Y0039878
X0054356Y0026416
Y0020066
X0101727Y0017272
X0122555Y0037338
X0130937
T03
X0140716Y000762
X0145034Y0007874
X0149733Y0006223
X0152273
X0162814Y000889
X0170434
X0020447Y0007112
X0017907
X001397Y0025654
X0009906Y0028895
X000635Y0025654
X0009906Y0048895
X0013589Y0051308
X0007366Y0053213
X0017907Y0053467
X0019558Y0048768
X0024003Y0048387
Y0043307
X0029464
Y0048387
X0030607Y0053467
X003429Y0051689
X005334
X0019558Y0041148
X0018161Y0016383
X0025781
X0067564Y0030734
X0075184
Y0045974
Y0051054
X0067564
Y0045974
X0092583Y0050165
Y0030165
X0088646Y0026416
X0096266
X0102108Y0040386
X0107188Y0040767
Y0045847
X0112776Y004572
Y004064
X0113157Y0053467
X0118237Y0050927
X0102108Y0048006
X0100457Y0053467
X0095631Y0051816
X0137287Y0050927
X0149987Y0050038
X0154432Y0050165
Y0042545
X0149987Y0042418
X0152019Y0037973
Y0032893
X0151892Y0026289
X0155702
X015621Y0019812
X0161036Y0020447
X016637Y0020574
Y0028194
X0161036Y0028067
X0157607Y0031496
X016383Y0032131
Y0037211
X0157607Y0039116
X0161163Y0045974
Y0051054
X014859Y0019812
X0145034Y0015494
X0140716Y001524
X0173228Y0027432
Y0029852
Y0032512
Y0035052
Y0037592
Y0040132
Y0042672
Y0045212
X0152654Y0057785
X0145034
X0095631Y0059436
X00889Y0059309
Y0054229
X0013589Y0058928
X0007366Y0058293
T05
X0152146Y0010481
Y0013081
Y0015681
T06
X0009271Y00192278
X0011811
X0021082Y0030607
X0028702
X0039497Y0030734
X0047117
X0045974Y0043942
X0035814
X0091694Y00193548
X0094234
X0104013Y0027305
X0111633
X0122555Y0027813
X0130175
X0129413Y0041783
X0119253
T07
X0145161Y0025926
Y0037066
T08
X0020906Y0053404
X0024306
X0027706
X0103583Y0053404
X0106983
X0110383
X0161163Y004191
X0163703
X0108683Y0057404
X0105283
X0026006Y0057404
X0022606
T09
X0145288Y0042109
Y0051109
T10
X0060452Y0013208
X0065532
X0070612
X0075692
T11
X0081915Y0024257
T12
X0175006Y000381
X0004064Y0004064
X0175006Y0061087
X0004064
M30
