M48
;Layer_Color=9474304
;FILE_FORMAT=4:4
METRIC,LZ
;TYPE=PLATED
T04F00S00C0.7620
;TYPE=NON_PLATED
%
G90
G05
T04
G00X0061267Y0007874
M15
G01Y000635
M16
G00X0066167Y0007874
M15
G01Y000635
M16
G00X0071374Y0007874
M15
G01Y000635
M16
G00X0076274Y0007874
M15
G01Y000635
M16
G00X0049985Y0014986
M15
G01Y0013462
M16
G00X0045085Y0014986
M15
G01Y0013462
M16
G00X0058801Y0028882
M15
G01X0057277
M16
G00X0058801Y0033782
M15
G01X0057277
M16
G00X0058674Y0038788
M15
G01X005715
M16
G00X0058674Y0043688
M15
G01X005715
M16
G00X0084074Y0045593
M15
G01X008255
M16
G00X0084074Y0040693
M15
G01X008255
M16
G00X0083185Y0034925
M15
G01X0081661
M16
G00X0083185Y0030025
M15
G01X0081661
M16
M17
M30
